<svg id="Layer_1" data-name="Layer 1" xmlns="http://www.w3.org/2000/svg" viewBox="0 0 512 445.4"><defs><style>.cls-1{fill:#1da1f2;}</style></defs><path class="cls-1" d="M1277.52,878.53a15.26,15.26,0,0,0-14.33-7.21l-25.53,2.22,24.4-49.19a15.27,15.27,0,0,0-20.39-20.5l-64.59,31.63c-39.9-21.06-89.75-14.81-124.06,16.44-28.63,26.08-43.68,66.19-40.87,106.18C937.32,950.6,874,907.77,836.53,838.56a15.27,15.27,0,0,0-25.7-1.81c-23.23,31.38-24.86,74.41-6.65,109.81-5-1.27-10.36-3-16.29-5a15.27,15.27,0,0,0-19.9,17c7.2,43.69,32.68,77.26,72.92,97.14a130.11,130.11,0,0,1-16,4.44,15.27,15.27,0,0,0-8,25.38c29,31,70.84,46.22,100.58,53.53-33.81,26.48-70.31,30.91-123.34,29.09a15.27,15.27,0,0,0-11.84,25.52c22.11,24.37,102.66,51.85,187.33,53.91q5,.12,10.25.12c59.45,0,138-12.74,194.42-69.14,42.69-42.69,69.39-91.83,79.36-146,8.05-43.8,3-78.87.52-95.73-.18-1.24-.38-2.55-.53-3.7l23.88-38.49A15.26,15.26,0,0,0,1277.52,878.53Zm-53.6,62.63c4.53,31.22,18.31,126.24-71.25,215.8-52.06,52.06-127.89,61.4-182.34,60.08-46.46-1.13-88-10-118.14-20.15a188.66,188.66,0,0,0,33.42-7C914,1181.06,937.92,1165.2,961,1140a15.26,15.26,0,0,0-9.32-25.44c-14.56-1.87-58.31-9.23-92.76-33a164.88,164.88,0,0,0,28.65-15.21,15.27,15.27,0,0,0-4.57-27.49c-28.2-7.4-62.23-23.94-77.92-60.86a82.05,82.05,0,0,0,32.54-.42A15.28,15.28,0,0,0,845.26,952c-19.52-20.22-26.82-49.36-20.56-74.3A260.48,260.48,0,0,0,901,951.61a253.32,253.32,0,0,0,128.57,38.14,15.27,15.27,0,0,0,15.26-18.58c-7.91-35.6,3.38-73.54,28.78-96.68,26.34-24,65.26-27.63,94.66-8.84a15.25,15.25,0,0,0,14.94.84l31.54-15.44-16.51,33.28a15.27,15.27,0,0,0,15,22l22.25-1.94-10.25,16.52C1221.78,926.44,1222.49,931.36,1223.92,941.16Z" transform="translate(-767.79 -802.29)"/></svg>