<svg id="Layer_1" data-name="Layer 1" xmlns="http://www.w3.org/2000/svg" viewBox="0 0 512 378.66"><defs><style>.cls-1{fill:#7289da;}</style></defs><path class="cls-1" d="M953,971.54c-29.61,0-53.69,26.53-53.69,59.15s24.08,59.16,53.69,59.16,53.7-26.54,53.7-59.16-24.09-59.15-53.7-59.15Zm0,88.31c-13.06,0-23.69-13.08-23.69-29.16s10.63-29.15,23.69-29.15,23.7,13.08,23.7,29.15S966,1059.85,953,1059.85Z" transform="translate(-767.83 -835.06)"/><path class="cls-1" d="M1094.71,971.54c-29.61,0-53.7,26.53-53.7,59.15s24.09,59.16,53.7,59.16,53.69-26.54,53.69-59.16S1124.31,971.54,1094.71,971.54Zm0,88.31c-13.07,0-23.7-13.08-23.7-29.16s10.63-29.15,23.7-29.15,23.69,13.08,23.69,29.15S1107.77,1059.85,1094.71,1059.85Z" transform="translate(-767.83 -835.06)"/><path class="cls-1" d="M1279.81,1131c-.35-6.34-9.32-156.36-66.29-246.1a15.22,15.22,0,0,0-4.54-4.57c-70.44-45.36-118.42-45.23-120.43-45.24a15,15,0,0,0-13.25,8.36l-24.2,46.37q-13.53-.88-27.27-.9c-9.14,0-18.25.31-27.26.9L972.4,843.47a15,15,0,0,0-13.28-8.4c-2,0-50-.12-120.43,45.23a15.11,15.11,0,0,0-4.54,4.57c-57,89.74-65.94,239.76-66.29,246.1a14.93,14.93,0,0,0,3.8,10.84c2.64,3,65.4,71.91,152.15,71.91H925a15,15,0,0,0,11.68-5.72l40-50.78a417.92,417.92,0,0,0,94.33,0l40,50.78a15,15,0,0,0,11.67,5.72h1.18c86.74,0,149.51-69,152.15-71.91a15,15,0,0,0,3.8-10.84ZM1130,1183.58l-25-31.75c38.08-7.83,72.26-21.16,98.94-39.06a15,15,0,1,0-16.71-24.91c-39.82,26.71-99.35,42-163.34,42s-123.51-15.32-163.33-42a15,15,0,0,0-16.71,24.92c26.68,17.89,60.85,31.22,98.93,39.06l-25,31.74c-58.73-2.72-105.47-43.8-119.43-57.43,2.33-29.06,14.42-148.93,59.46-222.42,44.23-27.92,77.61-35.68,92.52-37.84l14.23,27.27C931,898.05,899.68,907,873,919.6a15,15,0,0,0,12.78,27.14c38.14-18,87.18-27.85,138.07-27.85s99.94,9.9,138.08,27.86a15,15,0,0,0,12.78-27.15c-26.7-12.57-58-21.55-91.52-26.44l14.24-27.27c14.9,2.16,48.28,9.93,92.52,37.85,45,73.4,57.12,193.4,59.46,222.44-13.92,13.66-60.46,54.7-119.43,57.4Z" transform="translate(-767.83 -835.06)"/></svg>